<?xml version="1.0" encoding="utf-8"?>
<svg version="1.1" id="Layer_1" xmlns="http://www.w3.org/2000/svg" xmlns:xlink="http://www.w3.org/1999/xlink" x="0px" y="0px"
	viewBox="0 0 38.1 83.7" style="enable-background:new 0 0 38.1 83.7;" xml:space="preserve">
	<g>
		<rect x="30.5" y="45.6" transform="matrix(-1 -8.983227e-11 8.983227e-11 -1 68.5216 129.3674)" width="7.6" height="38.1"/>
		<rect x="15.2" y="45.6" transform="matrix(-1 -8.971281e-11 8.971281e-11 -1 38.0676 129.3674)" width="7.6" height="38.1"/>
		<rect x="0" y="45.6" transform="matrix(-1 -8.983227e-11 8.983227e-11 -1 7.6135 129.3674)" width="7.6" height="38.1"/>
		<rect x="15.2" y="-15.2" transform="matrix(-1.347484e-10 1 -1 -1.347484e-10 22.8405 -15.227)" width="7.6" height="38.1"/>
		<rect x="15.2" y="0" transform="matrix(-1.347484e-10 1 -1 -1.347484e-10 38.0676 -1.383720e-06)" width="7.6" height="38.1"/>
		<rect x="15.2" y="15.2" transform="matrix(-1.345095e-10 1 -1 -1.345095e-10 53.2946 15.227)" width="7.6" height="38.1"/>
	</g>
</svg>
